<svg xmlns="http://www.w3.org/2000/svg" viewBox="0 0 500 500"><g id="freepik--Shadow--inject-71"><ellipse id="freepik--path--inject-71" cx="250" cy="416.24" rx="193.89" ry="11.32" style="fill:#f5f5f5"></ellipse></g><g id="freepik--Character--inject-71"><path d="M108,109.2c-3.91-2.71-1.37-14.15,11.4-17.83S144.3,98.84,150,109s14.6,10.72,16,5.88c4.39,3.84,5.44,20.79-13.34,21.4,6.58,6.59-11,19.94-33.23,10.89S101.87,113.67,108,109.2Z" style="fill:#263238"></path><path d="M108,109.2c-3.91-2.71-1.37-14.15,11.4-17.83S144.3,98.84,150,109s14.6,10.72,16,5.88c4.39,3.84,5.44,20.79-13.34,21.4,6.58,6.59-11,19.94-33.23,10.89S101.87,113.67,108,109.2Z" style="fill:#fff;opacity:0.4"></path><path d="M163,416.24c-5.5,0-10.77-.37-15.1-.45-3.7-.07-5,.51-8,.44-2.49-.05-2.39-2.43-1.63-5.17.39-1.38,1-3.06,1.51-5.28h11.7c1.59,3,7.5,5.75,11.84,6.33C167.47,412.67,166.07,416.24,163,416.24Z" style="fill:#263238"></path><path d="M246.15,399.14c-7.57.2-10.13-.21-14.39-.24-3.65,0-4.19.76-7.89.86-2.44.07-3-2.67-2.24-4.76a10.7,10.7,0,0,0,.56-5.48l9.89-3.34c1.63,2.27,5.06,6.62,15.14,8.64C251.26,395.64,249.18,399.06,246.15,399.14Z" style="fill:#263238"></path><path d="M176,203.41s17.74,48.32,27.62,80.09c9.34,31.13,28.45,102.68,28.45,102.68.36,1.63-8.13,3.79-9.89,3.34,0,0-31.37-46.44-39.17-98.73C154.36,254.47,140.81,212,140.81,212Z" style="fill:#00C0E6"></path><path d="M165.45,206s2.78,64.38-2.79,94.89c-5.84,32-12.41,83.87-11.17,104.92-1.81,1.05-8.14,1.11-11.7,0,0,0-15.69-70.92.88-102.35-8.08-74.75-5-90.21-5-90.21Z" style="fill:#00C0E6"></path><path d="M152.37,401.4a30.4,30.4,0,0,0,.41,4.32.9.9,0,0,1-.76,1.06c-4.28.69-10.47-.3-12.44-.66a.87.87,0,0,1-.72-.74l-.64-4.05a.9.9,0,0,1,.91-1l12.36.24A.89.89,0,0,1,152.37,401.4Z" style="fill:#263238"></path><path d="M152.37,401.4a30.4,30.4,0,0,0,.41,4.32.9.9,0,0,1-.76,1.06c-4.28.69-10.47-.3-12.44-.66a.87.87,0,0,1-.72-.74l-.64-4.05a.9.9,0,0,1,.91-1l12.36.24A.89.89,0,0,1,152.37,401.4Z" style="fill:#fff;opacity:0.1"></path><path d="M231.55,381.53c.44,1,1.23,2.9,1.87,4.25A.91.91,0,0,1,233,387a62.93,62.93,0,0,1-11,3.56.88.88,0,0,1-1-.4l-2.21-3.52a.9.9,0,0,1,.44-1.32l11.09-4.24A.9.9,0,0,1,231.55,381.53Z" style="fill:#263238"></path><path d="M231.55,381.53c.44,1,1.23,2.9,1.87,4.25A.91.91,0,0,1,233,387a62.93,62.93,0,0,1-11,3.56.88.88,0,0,1-1-.4l-2.21-3.52a.9.9,0,0,1,.44-1.32l11.09-4.24A.9.9,0,0,1,231.55,381.53Z" style="fill:#fff;opacity:0.1"></path><path d="M162.68,151.29l.44.65.55.79c.39.53.78,1.08,1.19,1.61.82,1.07,1.66,2.14,2.55,3.17a71.52,71.52,0,0,0,5.64,5.9,61.35,61.35,0,0,0,6.27,5.08,52.73,52.73,0,0,0,6.87,4l-2.93-.5a.92.92,0,0,0,.57,0,3.22,3.22,0,0,0,1.19-.5,14.31,14.31,0,0,0,3.11-3,38.6,38.6,0,0,0,3-4.4c1-1.56,1.9-3.34,2.76-4.9l.17-.31a3.68,3.68,0,0,1,6.9,2,38.16,38.16,0,0,1-1.07,6.68,36,36,0,0,1-2.3,6.57,23.53,23.53,0,0,1-4.43,6.53,16.84,16.84,0,0,1-3.86,2.89,14.05,14.05,0,0,1-5.28,1.61,5.56,5.56,0,0,1-2.45-.3l-.49-.19a55.37,55.37,0,0,1-9.35-4.47c-1.49-.88-2.91-1.84-4.32-2.82s-2.72-2.06-4-3.15a66.79,66.79,0,0,1-7.23-7.14c-1.11-1.29-2.19-2.59-3.2-4-.51-.69-1-1.39-1.49-2.11l-.72-1.11-.37-.59-.42-.7a7.34,7.34,0,0,1,12.38-7.88Z" style="fill:#ffc3bd"></path><path d="M151.5,144.08c7.79-.41,13.28,4.95,23.83,16.38-.5,5.34-10.93,12.87-10.93,12.87S141.55,156.69,151.5,144.08Z" style="fill:#263238"></path><path d="M166.74,155.31A186.31,186.31,0,0,1,171,173.85c1.64,8.1,3,16.12,5,29.56l-40.39,9.81c-2-11.57-6.43-24.21-19.9-48.05A9.7,9.7,0,0,1,120.8,151c1.56-.55,3.22-1.1,5-1.6a131.86,131.86,0,0,1,18.33-4.46c2-.3,4.17-.55,6.21-.76A15.65,15.65,0,0,1,166.74,155.31Z" style="fill:#263238"></path><path d="M122,128.4c3,5.52,7.62,15.85,4.74,20.72,0,0,5.39-2.2,19,2.26,2.24-5.76-.7-6.71-.7-6.71-7.08.05-8.46-4.78-8.77-9.56Z" style="fill:#ffc3bd"></path><path d="M142.93,150.51c-3.77,1.5-2.12,9.85-2.12,9.85s-13.9-6.62-16.83-10.71l3.18-2.76S140.1,148.81,142.93,150.51Z" style="fill:#00C0E6"></path><path d="M146.5,149s5.55,1.57,7.92,6c-1.19-8.82-7.52-10.79-7.52-10.79a5.15,5.15,0,0,0-3.66.34A4.32,4.32,0,0,1,146.5,149Z" style="fill:#00C0E6"></path><path d="M127.85,131.14l8.47,4a19.19,19.19,0,0,0,.46,3.34c-2.62.25-6.95-1.62-8.06-4.14A9.05,9.05,0,0,1,127.85,131.14Z" style="opacity:0.2"></path><path d="M114.1,117.79c4.1,9.09,5.65,13,12.19,16.26,9.85,4.89,20.2-1.48,18.92-11.45-1.16-9-7.68-22.34-18.26-23.1A12.78,12.78,0,0,0,114.1,117.79Z" style="fill:#ffc3bd"></path><path d="M126.74,115.12a3.65,3.65,0,0,0-2.76.38A7.06,7.06,0,0,0,126.74,115.12Z" style="opacity:0.2"></path><path d="M126.78,115.79a3,3,0,0,0-2.33.95A5.88,5.88,0,0,0,126.78,115.79Z" style="opacity:0.2"></path><path d="M139.93,111.79s.58-.82,1.09-.44A1.53,1.53,0,0,1,139.93,111.79Z" style="opacity:0.2"></path><path d="M140.11,112.4s.46-.74.85-.12A.74.74,0,0,1,140.11,112.4Z" style="opacity:0.2"></path><path d="M134,104.59s-5.33.27-7.87,1.71A43.24,43.24,0,0,0,134,104.59Z" style="opacity:0.2"></path><path d="M128,115.72c.31.78,1,1.27,1.48,1.11s.66-.93.35-1.7-1-1.28-1.48-1.12S127.7,114.94,128,115.72Z" style="fill:#263238"></path><path d="M137.6,112.78c.31.78,1,1.28,1.48,1.11s.67-.92.36-1.7-1-1.28-1.49-1.12S137.29,112,137.6,112.78Z" style="fill:#263238"></path><path d="M137.75,111.19l1.64-1.14S139,111.82,137.75,111.19Z" style="fill:#263238"></path><path d="M136.68,114.26a24.81,24.81,0,0,0,4.75,4.07c-.64,1.29-2.55,1.41-2.55,1.41Z" style="fill:#ed847e"></path><path d="M135.57,124.06a8.13,8.13,0,0,0,1.35-.31.22.22,0,0,0,.13-.3.26.26,0,0,0-.32-.16,6.94,6.94,0,0,1-6-.79.24.24,0,0,0-.34,0,.24.24,0,0,0,.06.34A7.36,7.36,0,0,0,135.57,124.06Z" style="fill:#263238"></path><path d="M137.41,102.43c-1.36-4.68-20.33-9.36-24.66,3.29-4.49,1.47-.6,17.1,5.24,18.71,6.35,1.75,4.48-9.84,0-15.93,3.47-1.08,6.71-3.24,7.43-5.46C130.9,106.6,138.87,107.47,137.41,102.43Z" style="fill:#263238"></path><path d="M137.41,102.43c-1.36-4.68-20.33-9.36-24.66,3.29-4.49,1.47-.6,17.1,5.24,18.71,6.35,1.75,4.48-9.84,0-15.93,3.47-1.08,6.71-3.24,7.43-5.46C130.9,106.6,138.87,107.47,137.41,102.43Z" style="fill:#fff;opacity:0.4"></path><path d="M114.07,127.46a6.85,6.85,0,0,0,5.09,2.18c2.36-.13,2.49-2.92,1-5.17-1.38-2-4.26-4.4-6.21-3.17S112.27,125.63,114.07,127.46Z" style="fill:#ffc3bd"></path><path d="M123.47,111.33a.52.52,0,0,0,.31-.27,4.24,4.24,0,0,1,2.89-2.36.49.49,0,0,0,.42-.57.54.54,0,0,0-.63-.38,5.34,5.34,0,0,0-3.69,3,.47.47,0,0,0,.3.63A.61.61,0,0,0,123.47,111.33Z" style="fill:#263238"></path><path d="M140.31,107.7a.44.44,0,0,0,.25-.25.48.48,0,0,0-.28-.62,5.13,5.13,0,0,0-4.54.15.44.44,0,0,0-.11.65.52.52,0,0,0,.69.14,4.1,4.1,0,0,1,3.6-.08A.53.53,0,0,0,140.31,107.7Z" style="fill:#263238"></path><path d="M132.21,121.24c-2.18,0-4.49-2.31-5.23-5.31a6,6,0,0,1,.59-4.86,2.93,2.93,0,0,1,2.15-1.27c2.27-.21,4.73,2.17,5.51,5.3h0a6,6,0,0,1-.6,4.86,2.91,2.91,0,0,1-2.15,1.27ZM130,110.34h-.23a2.41,2.41,0,0,0-1.74,1,5.44,5.44,0,0,0-.51,4.4c.71,2.87,2.92,5.07,4.91,4.88a2.36,2.36,0,0,0,1.75-1,5.51,5.51,0,0,0,.51-4.4C134,112.47,131.94,110.34,130,110.34Z" style="fill:#fff"></path><path d="M142.15,117.24c-2.18,0-4.48-2.32-5.23-5.32a6.05,6.05,0,0,1,.59-4.85,2.93,2.93,0,0,1,2.16-1.28c2.25-.21,4.72,2.18,5.5,5.3a6,6,0,0,1-.59,4.86,2.92,2.92,0,0,1-2.16,1.27Zm-2.2-10.9h-.23a2.35,2.35,0,0,0-1.75,1,5.43,5.43,0,0,0-.51,4.4c.72,2.87,2.92,5.06,4.91,4.88a2.35,2.35,0,0,0,1.75-1,5.44,5.44,0,0,0,.51-4.4h0C143.94,108.47,141.88,106.34,140,106.34Z" style="fill:#fff"></path><path d="M134.65,114.46a.29.29,0,0,1-.18-.07.27.27,0,0,1,0-.39c.08-.09,1.88-2.18,3.28-1.24a.27.27,0,1,1-.3.46c-1-.65-2.54,1.12-2.55,1.14A.32.32,0,0,1,134.65,114.46Z" style="fill:#fff"></path><path d="M128.15,114.13,129.8,113S129.43,114.76,128.15,114.13Z" style="fill:#263238"></path><path d="M197,149l-2.33,2.05a3.6,3.6,0,0,0-1.2,3.07l.56,5.42a6.71,6.71,0,0,0,3.38,5.17l1.17.66c4.09-3.13,6.21-9.54,6.21-9.54l.8-1.75a3,3,0,0,0-1.4-4l-3.46-1.64A3.46,3.46,0,0,0,197,149Z" style="fill:#ffc3bd"></path><path d="M126,165.3l.67,8.21c.22,2.77.5,5.53.76,8.28s.59,5.48.93,8.2.77,5.38,1.24,8l-1.71-3.09a6.54,6.54,0,0,0,1.49,1.29,23.28,23.28,0,0,0,2.67,1.55c2,1,4.17,1.95,6.43,2.82s4.58,1.73,6.93,2.56l7.07,2.44.09,0a3.69,3.69,0,0,1-1.2,7.17c-2.72,0-5.32-.17-8-.42s-5.28-.64-7.94-1.14a60.57,60.57,0,0,1-8.09-2.08,33.93,33.93,0,0,1-4.25-1.73,18.7,18.7,0,0,1-4.7-3.19,5.52,5.52,0,0,1-1.55-2.52l-.16-.56c-.84-2.93-1.58-5.85-2.17-8.77s-1.14-5.84-1.56-8.75-.78-5.84-1.08-8.76-.49-5.8-.58-8.86a7.35,7.35,0,0,1,14.67-.83Z" style="fill:#ffc3bd"></path><path d="M120.44,151.11c-6.33,2.62-8.48,5.26-10.64,19.77,4.92,6.59,19.28,6.59,19.28,6.59S128,158.59,120.44,151.11Z" style="fill:#263238"></path><rect x="327.11" y="144.37" width="1.05" height="6.46" transform="translate(13.71 322.48) rotate(-53.37)" style="fill:#00C0E6"></rect><rect x="313.6" y="129.26" width="1.05" height="16.6" transform="translate(16.33 307.59) rotate(-53.37)" style="fill:#00C0E6"></rect><path d="M261.83,116.86,155.49,212.17,275,206.69l119.5-5.47L279.87,116A14.27,14.27,0,0,0,261.83,116.86Z" style="fill:#00C0E6"></path><path d="M261.83,116.86,155.49,212.17,275,206.69l119.5-5.47L279.87,116A14.27,14.27,0,0,0,261.83,116.86Z" style="fill:#fff;opacity:0.5"></path><path d="M395.78,355,168.25,365.46A9.86,9.86,0,0,1,158,356.09l-6.35-138.74A9.86,9.86,0,0,1,161,207.07l227.54-10.41A9.86,9.86,0,0,1,398.8,206l6.35,138.74A9.86,9.86,0,0,1,395.78,355Z" style="fill:#00C0E6"></path><path d="M395.78,355,168.25,365.46A9.86,9.86,0,0,1,158,356.09l-6.35-138.74A9.86,9.86,0,0,1,161,207.07l227.54-10.41A9.86,9.86,0,0,1,398.8,206l6.35,138.74A9.86,9.86,0,0,1,395.78,355Z" style="fill:#fff;opacity:0.8"></path><path d="M276.2,302.16,170.39,214.83a4.69,4.69,0,0,1,2.77-8.31l101.6-4.65,101.6-4.66a4.69,4.69,0,0,1,3.52,8l-97.39,96.64A4.68,4.68,0,0,1,276.2,302.16Z" style="fill:#00C0E6;opacity:0.2"></path><rect x="184.27" y="150.58" width="181.56" height="122.42" rx="9.34" transform="translate(79.01 -74.7) rotate(18.02)" style="fill:#00C0E6"></rect><rect x="183.16" y="150.22" width="181.56" height="122.42" rx="9.34" transform="translate(78.84 -74.37) rotate(18.02)" style="fill:#00C0E6"></rect><rect x="183.16" y="150.22" width="181.56" height="122.42" rx="9.34" transform="translate(78.84 -74.37) rotate(18.02)" style="fill:#fff;opacity:0.2"></rect><polygon points="237.02 263.79 211.87 255.6 300.83 155.81 325.99 163.99 237.02 263.79" style="fill:#fff;opacity:0.2"></polygon><polygon points="259.94 271.24 245.26 266.47 334.23 166.67 348.91 171.45 259.94 271.24" style="fill:#fff;opacity:0.2"></polygon><rect x="244.81" y="140.57" width="1.17" height="123.15" transform="translate(74.56 -65.99) rotate(18.02)" style="fill:#fff"></rect><rect x="273.38" y="120.18" width="1.17" height="182.5" transform="translate(559.78 16.33) rotate(108.02)" style="fill:#fff"></rect><path d="M245.39,202.53a.41.41,0,0,1-.35-.22c-2.45-5.21-7.39-12.68-12.62-20.59-8.93-13.51-17.36-26.27-14.73-29.61.88-1.11,2.76-1.12,5.75,0,13.29,4.86,25.19,31.56,22.34,50.11a.4.4,0,0,1-.33.33ZM219.8,152.05a1.79,1.79,0,0,0-1.49.54c-2.29,2.9,6.77,16.6,14.76,28.7,4.87,7.37,9.49,14.36,12.11,19.53,2.1-18.19-9.29-43.35-22-48A10.49,10.49,0,0,0,219.8,152.05Z" style="fill:#00C0E6"></path><path d="M197.59,234.48a9.26,9.26,0,0,1-2.83-.4c-3-1-4.51-3.63-4.38-7.9.11-3.53,2.28-7.07,6.45-10.53,11.15-9.27,34.78-16,48.62-13.89a.37.37,0,0,1,.3.22.42.42,0,0,1,0,.38C237.42,214.78,210.5,234.48,197.59,234.48Zm42.19-32.34c-13.76,0-32.82,6.1-42.45,14.1-4,3.32-6.07,6.67-6.17,10-.12,3.88,1.17,6.28,3.84,7.14,10.64,3.41,40.64-17.92,49.72-30.9A36.83,36.83,0,0,0,239.78,202.14Z" style="fill:#00C0E6"></path><path d="M256,238h-.25c-3.75-.11-6.67-1.4-8.69-3.83-5.37-6.45-3.81-20-1.93-32.27a.38.38,0,0,1,.33-.33.37.37,0,0,1,.4.22c1.66,3.53,3.58,7.22,5.42,10.8,5.62,10.85,10.47,20.23,8.17,23.88A3.76,3.76,0,0,1,256,238Zm-10.29-34.73c-1.77,11.73-3,24.42,2,30.4,1.89,2.28,4.55,3.45,8.12,3.55,1.51.05,2.49-.33,3-1.16,2.06-3.28-2.92-12.92-8.2-23.12C248.89,209.73,247.19,206.44,245.66,203.25Z" style="fill:#00C0E6"></path><path d="M257.18,203.17a78.88,78.88,0,0,1-11.78-.85.42.42,0,0,1-.28-.19.44.44,0,0,1,0-.34c2.1-5.36,9.05-10.53,16.51-12.29,6.48-1.53,12.34-.3,16.51,3.46,2.11,1.9,2,3.46,1.54,4.43C277.85,201.21,267.74,203.17,257.18,203.17ZM246,201.62c14.34,2.1,30.87-.16,32.95-4.56.51-1.07.05-2.25-1.36-3.53-4-3.58-9.59-4.74-15.81-3.27C254.77,191.92,248.24,196.65,246,201.62Z" style="fill:#00C0E6"></path><path d="M240.39,246.31c-1,0-2.06-.87-3.3-2.65-6.29-9-1.94-31.35,8.16-41.89a.38.38,0,0,1,.45-.08.39.39,0,0,1,.21.42c-.76,4.39-.95,11.33-1.16,18.68-.41,14.79-.9,24.55-3.9,25.45A1.83,1.83,0,0,1,240.39,246.31ZM245,203.25c-9.28,10.65-13.16,31.43-7.22,40,1.19,1.7,2.19,2.49,2.9,2.27,2.68-.8,3-13.51,3.34-24.72C244.16,214.07,244.34,207.7,245,203.25Z" style="fill:#fff"></path><path d="M280.1,215.28c-11.27,0-27.5-5.92-34.84-13a.37.37,0,0,1-.11-.36.35.35,0,0,1,.24-.28c11.69-4.54,41-4.76,46.6,2.59,1.52,2,1.27,4.39-.74,7.07-1.66,2.21-4.64,3.51-8.86,3.85C281.65,215.25,280.89,215.28,280.1,215.28Zm-33.85-13.1c7.95,7.22,25.24,13.12,36.08,12.23,4-.32,6.78-1.51,8.29-3.54,1.78-2.37,2-4.43.75-6.13C286.17,197.88,257.87,198,246.25,202.18Z" style="fill:#fff"></path><path d="M245.39,202.53a.35.35,0,0,1-.17,0,.4.4,0,0,1-.21-.42c1.55-8.9,6.79-27.15,15.54-32.52a8.8,8.8,0,0,1,7.45-1.06,3.76,3.76,0,0,1,2.86,2.63c1.28,5.3-10,16.29-19,25.12-2.3,2.25-4.47,4.37-6.19,6.17A.4.4,0,0,1,245.39,202.53Zm20-33.66a8.42,8.42,0,0,0-4.46,1.35C253.81,174.6,248.29,189,246,201c1.56-1.59,3.39-3.39,5.32-5.27,8.42-8.23,19.95-19.5,18.77-24.37a3,3,0,0,0-2.33-2.08A8,8,0,0,0,265.42,168.87Z" style="fill:#fff"></path><path d="M237.67,204.46a22.18,22.18,0,0,1-8.1-1.54c-4.83-1.93-8-5.34-9-9.61-.51-2.21.28-3.18,1-3.6,4-2.25,16.4,4.81,24,12.15a.38.38,0,0,1,.12.32.37.37,0,0,1-.17.28A14.62,14.62,0,0,1,237.67,204.46Zm-14.16-14.4a3.09,3.09,0,0,0-1.52.32c-.76.43-1,1.36-.66,2.75.92,4,3.95,7.24,8.53,9.07,5.12,2.05,11.28,2,14.9-.12C237.73,195.47,228,190.06,223.51,190.06Z" style="fill:#fff"></path><path d="M266.14,272l-97.89,93.51L282,360.25,395.78,355l-106-84.17A18,18,0,0,0,266.14,272Z" style="fill:#00C0E6;opacity:0.2"></path><path d="M269.49,274.72,168.25,365.46,282,360.25,395.78,355,286.67,273.93A13.6,13.6,0,0,0,269.49,274.72Z" style="fill:#00C0E6"></path><path d="M269.49,274.72,168.25,365.46,282,360.25,395.78,355,286.67,273.93A13.6,13.6,0,0,0,269.49,274.72Z" style="fill:#fff;opacity:0.8"></path><path d="M163.47,210l-1.75-2.56a3.61,3.61,0,0,0-2.91-1.56l-5.45-.1a6.72,6.72,0,0,0-5.53,2.73l-.8,1.09c2.62,4.44,8.72,7.3,8.72,7.3l1.65,1a3,3,0,0,0,4.17-.9l2.05-3.24A3.47,3.47,0,0,0,163.47,210Z" style="fill:#ffc3bd"></path></g></svg>